<svg width="13" height="16" viewBox="0 0 13 16" fill="none" xmlns="http://www.w3.org/2000/svg">
<path fill-rule="evenodd" clip-rule="evenodd" d="M6.82721 1.51895C5.63401 1.51895 4.66672 2.48624 4.66672 3.67945C4.66672 4.87265 5.63401 5.83994 6.82721 5.83994C8.02042 5.83994 8.98771 4.87265 8.98771 3.67945C8.98771 2.48624 8.02042 1.51895 6.82721 1.51895ZM3.37042 3.67945C3.37042 1.77031 4.91808 0.222656 6.82721 0.222656C8.73635 0.222656 10.284 1.77031 10.284 3.67945C10.284 5.58858 8.73635 7.13624 6.82721 7.13624C4.91808 7.13624 3.37042 5.58858 3.37042 3.67945ZM0.777832 13.7257C0.777832 11.041 2.95423 8.86463 5.63894 8.86463H8.01549C10.7002 8.86463 12.8766 11.041 12.8766 13.7257C12.8766 14.8593 11.9577 15.7782 10.8241 15.7782H2.8303C1.69675 15.7782 0.777832 14.8593 0.777832 13.7257ZM5.63894 10.1609C3.67015 10.1609 2.07413 11.757 2.07413 13.7257C2.07413 14.1434 2.41268 14.4819 2.8303 14.4819H10.8241C11.2418 14.4819 11.5803 14.1434 11.5803 13.7257C11.5803 11.757 9.98428 10.1609 8.01549 10.1609H5.63894Z" fill="black"/>
</svg>
