<svg width="32" height="32" viewBox="0 0 32 32" fill="none" xmlns="http://www.w3.org/2000/svg">
<g clip-path="url(#clip0_378_16753)">
<path d="M18.6666 8.66699H10.6666C9.93325 8.66699 9.33325 9.26699 9.33325 10.0003V19.3337H10.6666V10.0003H18.6666V8.66699ZM20.6666 11.3337H13.3333C12.5999 11.3337 11.9999 11.9337 11.9999 12.667V22.0003C11.9999 22.7337 12.5999 23.3337 13.3333 23.3337H20.6666C21.3999 23.3337 21.9999 22.7337 21.9999 22.0003V12.667C21.9999 11.9337 21.3999 11.3337 20.6666 11.3337ZM20.6666 22.0003H13.3333V12.667H20.6666V22.0003Z" fill="white"/>
</g>
<rect x="0.5" y="0.5" width="31" height="31" rx="3.5" stroke="#484848"/>
<defs>
<clipPath id="clip0_378_16753">
<rect width="16" height="16" fill="white" transform="translate(8 8)"/>
</clipPath>
</defs>
</svg>
