<svg width="96" height="19" viewBox="0 0 96 19" fill="none" xmlns="http://www.w3.org/2000/svg">
<path d="M11.098 7.12773H7.90179V2.875H6.31763V8.71064H12.6821V2.875H11.098V7.12773Z" fill="white"/>
<path d="M6.31763 16.1257H7.90179V11.873H11.098V16.1257H12.6821V10.29H6.31763V16.1257Z" fill="white"/>
<path d="M30.618 4.76855L30.5509 4.83562V8.82643H26.4804L26.4121 8.89475V10.112L26.4804 10.179H30.5509V14.1711L30.618 14.2382H31.8352L31.9036 14.1711V9.70582V8.3532V4.83562L31.8352 4.76855H30.618Z" fill="white"/>
<path d="M23.818 4.76855L23.751 4.83562V14.1711L23.818 14.2382H25.0353L25.1036 14.1711V9.70582V8.3532V4.83562L25.0353 4.76855H23.818Z" fill="white"/>
<path d="M40.7834 4.76689L37.3531 8.1959L33.9229 4.76689L33.828 4.76562L32.9663 5.62731V5.7222L36.6775 9.43338V14.1555L36.7445 14.2302H37.963L38.0301 14.1555V9.43338L41.74 5.7222V5.62731L40.8796 4.76689H40.7834Z" fill="white"/>
<path d="M44.6236 4.76913H42.7863L42.7117 4.83619V6.05343L42.7863 6.12049H44.6058C46.6354 6.12049 48.0551 7.6085 48.0551 9.50268C48.0551 11.3969 46.6341 12.8849 44.6058 12.8849H42.7863L42.7117 12.9519V14.1692L42.7863 14.2362H44.6236C47.5236 14.2274 49.6127 12.1345 49.6127 9.50142C49.6127 6.86829 47.5236 4.77546 44.6248 4.7666L44.6236 4.76913Z" fill="white"/>
<path d="M81.3278 4.76855L81.2607 4.83562V6.05285L81.3278 6.12118H87.0812L87.1495 6.05285V4.83562L87.0812 4.76855H81.3278Z" fill="white"/>
<path d="M56.9985 7.47409C56.9985 5.91775 55.7813 4.76758 53.8871 4.76758H50.3632L50.2886 4.83464V6.05187L50.3632 6.11894H53.8871C54.9019 6.11894 55.4434 6.66049 55.4434 7.47156C55.4434 8.28263 54.9019 8.82418 53.8871 8.82418H52.8901L52.8154 8.89125V10.1085L52.8901 10.1755H53.7517L56.7277 14.1664L56.7948 14.2334H58.4182L58.4853 14.1664L55.3739 9.90476C56.3886 9.4986 56.9972 8.55214 56.9972 7.4703L56.9985 7.47409Z" fill="white"/>
<path d="M81.3278 12.8936L81.2607 12.9619V14.1791L81.3278 14.2462H87.0812L87.1495 14.1791V12.9619L87.0812 12.8936H81.3278Z" fill="white"/>
<path d="M95.393 4.76855H94.1745L94.1074 4.83562V12.0732L88.5603 4.83562L88.5261 4.8179V7.06384L93.972 14.1711L94.1074 14.2382H95.393L95.46 14.1711V4.83562L95.393 4.76855Z" fill="white"/>
<path d="M81.3278 8.82715L81.2607 8.89548V10.1127L81.3278 10.1798H87.0812L87.1495 10.1127V8.89548L87.0812 8.82715H81.3278Z" fill="white"/>
<path d="M58.8774 9.50373C58.8774 11.9964 60.7653 14.0677 63.2061 14.3954V12.953C61.6232 12.6341 60.4325 11.2144 60.4325 9.50373C60.4325 7.79302 61.6232 6.37334 63.2061 6.05448V4.61328C60.7653 4.941 58.8774 7.01106 58.8774 9.505V9.50373Z" fill="white"/>
<path d="M64.5598 4.61162V6.05281C66.1427 6.37167 67.3334 7.79136 67.3334 9.50207C67.3334 11.2128 66.1427 12.6325 64.5598 12.9513V14.3938C67.0006 14.0661 68.8884 11.9947 68.8884 9.50207C68.8884 7.00939 67.0006 4.93807 64.5598 4.61035V4.61162Z" fill="white"/>
<path d="M75.8704 8.89563L75.8033 8.96269V10.1799L75.8704 10.247H77.6962V12.5473C77.0193 12.8852 76.2753 13.0206 75.5996 13.0206C73.503 13.0206 71.9467 11.5326 71.9467 9.50298C71.9467 7.47342 73.4347 5.9854 75.5313 5.9854C76.6815 5.9854 77.967 6.25618 78.8464 7.06725L78.9147 7.00019V5.44385C78.0353 4.7669 76.8181 4.56445 75.5326 4.56445C72.6236 4.56445 70.3916 6.79647 70.3916 9.50298C70.3916 12.2095 72.6919 14.4415 75.5996 14.4415C76.8168 14.4415 78.0353 14.1037 79.0488 13.3597V8.96269L78.9818 8.89563H75.8704V8.89563Z" fill="white"/>
<path d="M0 19H18.9999V0H0V19ZM1.56645 1.56646H17.4334V17.4335H1.56645V1.56646V1.56646Z" fill="white"/>
</svg>
