<svg width="240" height="64" viewBox="0 0 240 64" fill="none" xmlns="http://www.w3.org/2000/svg">
<g clip-path="url(#clip0_118_11119)">
<rect width="240" height="64" rx="4" fill="#484848"/>
<path d="M17.66 22.3H18.94C19.8133 22.3 20.48 22.06 20.94 21.58C21.4 21.1 21.63 20.43 21.63 19.57C21.63 18.71 21.4 18.04 20.94 17.56C20.48 17.08 19.8133 16.84 18.94 16.84H17.66V22.3ZM18.94 16.07C20.06 16.07 20.9433 16.3833 21.59 17.01C22.2367 17.6367 22.56 18.49 22.56 19.57C22.56 20.65 22.2367 21.4933 21.59 22.1C20.9433 22.7 20.06 23 18.94 23H16.75V16.07H18.94ZM26.0529 22.34C26.5662 22.34 27.0096 22.1567 27.3829 21.79C27.7629 21.4167 27.9529 20.9033 27.9529 20.25C27.9529 19.5967 27.7729 19.0867 27.4129 18.72C27.0529 18.3533 26.6129 18.17 26.0929 18.17C25.5796 18.17 25.1496 18.3533 24.8029 18.72C24.4562 19.0867 24.2829 19.6 24.2829 20.26C24.2829 20.9133 24.4496 21.4233 24.7829 21.79C25.1162 22.1567 25.5396 22.34 26.0529 22.34ZM24.1029 22.31C23.6029 21.79 23.3529 21.1067 23.3529 20.26C23.3529 19.4133 23.6162 18.73 24.1429 18.21C24.6696 17.6833 25.3296 17.42 26.1229 17.42C26.9162 17.42 27.5762 17.6833 28.1029 18.21C28.6296 18.73 28.8929 19.4133 28.8929 20.26C28.8929 21.1 28.6162 21.7833 28.0629 22.31C27.5162 22.83 26.8462 23.09 26.0529 23.09C25.2596 23.09 24.6096 22.83 24.1029 22.31ZM34.5693 22.91L32.3993 17.51H33.3993L35.0793 21.95L36.7893 17.51H37.7293L34.4193 25.57H33.4793L34.5693 22.91ZM40.9357 22.34C41.449 22.34 41.8924 22.1567 42.2657 21.79C42.6457 21.4167 42.8357 20.9033 42.8357 20.25C42.8357 19.5967 42.6557 19.0867 42.2957 18.72C41.9357 18.3533 41.4957 18.17 40.9757 18.17C40.4624 18.17 40.0324 18.3533 39.6857 18.72C39.339 19.0867 39.1657 19.6 39.1657 20.26C39.1657 20.9133 39.3324 21.4233 39.6657 21.79C39.999 22.1567 40.4224 22.34 40.9357 22.34ZM38.9857 22.31C38.4857 21.79 38.2357 21.1067 38.2357 20.26C38.2357 19.4133 38.499 18.73 39.0257 18.21C39.5524 17.6833 40.2124 17.42 41.0057 17.42C41.799 17.42 42.459 17.6833 42.9857 18.21C43.5124 18.73 43.7757 19.4133 43.7757 20.26C43.7757 21.1 43.499 21.7833 42.9457 22.31C42.399 22.83 41.729 23.09 40.9357 23.09C40.1424 23.09 39.4924 22.83 38.9857 22.31ZM48.7841 17.51H49.6941V23H48.7841V22.12C48.4174 22.7667 47.8207 23.09 46.9941 23.09C46.3874 23.09 45.8807 22.89 45.4741 22.49C45.0674 22.0833 44.8641 21.51 44.8641 20.77V17.51H45.7641V20.62C45.7641 21.1667 45.8974 21.5867 46.1641 21.88C46.4374 22.1667 46.8074 22.31 47.2741 22.31C47.7407 22.31 48.1074 22.1667 48.3741 21.88C48.6474 21.5867 48.7841 21.1667 48.7841 20.62V17.51ZM55.1014 15.6V18.4C55.4747 17.7467 56.0714 17.42 56.8914 17.42C57.4981 17.42 58.0047 17.6233 58.4114 18.03C58.8181 18.43 59.0214 19.0033 59.0214 19.75V23H58.1214V19.9C58.1214 19.3467 57.9881 18.9267 57.7214 18.64C57.4547 18.3533 57.0847 18.21 56.6114 18.21C56.1447 18.21 55.7747 18.3533 55.5014 18.64C55.2347 18.9267 55.1014 19.3467 55.1014 19.9V23H54.1914V15.6H55.1014ZM64.2007 21.75C64.5674 21.3767 64.7507 20.88 64.7507 20.26C64.7507 19.64 64.5674 19.1433 64.2007 18.77C63.8407 18.3967 63.404 18.21 62.8907 18.21C62.384 18.21 61.9474 18.39 61.5807 18.75C61.2207 19.11 61.0407 19.6 61.0407 20.22C61.0407 20.84 61.224 21.3433 61.5907 21.73C61.9574 22.1167 62.394 22.31 62.9007 22.31C63.4074 22.31 63.8407 22.1233 64.2007 21.75ZM62.7307 23.09C61.984 23.09 61.3607 22.8233 60.8607 22.29C60.3607 21.75 60.1107 21.0633 60.1107 20.23C60.1107 19.39 60.3574 18.7133 60.8507 18.2C61.3507 17.68 61.9774 17.42 62.7307 17.42C63.1974 17.42 63.604 17.53 63.9507 17.75C64.304 17.97 64.5707 18.2567 64.7507 18.61V17.51H65.6707V23H64.7507V21.88C64.5707 22.24 64.304 22.5333 63.9507 22.76C63.604 22.98 63.1974 23.09 62.7307 23.09ZM66.5399 17.51H67.5099L69.1899 22.15L70.8799 17.51H71.8599L69.7099 23H68.6799L66.5399 17.51ZM75.0266 23.09C74.2399 23.09 73.5999 22.83 73.1066 22.31C72.6132 21.79 72.3666 21.1033 72.3666 20.25C72.3666 19.3967 72.6166 18.7133 73.1166 18.2C73.6166 17.68 74.2632 17.42 75.0566 17.42C75.8566 17.42 76.4966 17.6667 76.9766 18.16C77.4632 18.6467 77.7066 19.27 77.7066 20.03C77.7066 20.2233 77.6932 20.4033 77.6666 20.57H73.2966C73.3232 21.1167 73.4932 21.55 73.8066 21.87C74.1266 22.1833 74.5332 22.34 75.0266 22.34C75.3999 22.34 75.7132 22.2567 75.9666 22.09C76.2266 21.9233 76.4166 21.7033 76.5366 21.43H77.5166C77.3432 21.91 77.0432 22.3067 76.6166 22.62C76.1966 22.9333 75.6666 23.09 75.0266 23.09ZM76.7566 19.91C76.7499 19.3833 76.5832 18.9633 76.2566 18.65C75.9299 18.33 75.5232 18.17 75.0366 18.17C74.5566 18.17 74.1566 18.3267 73.8366 18.64C73.5166 18.9467 73.3399 19.37 73.3066 19.91H76.7566ZM85.5679 21.75C85.9346 21.3767 86.1179 20.88 86.1179 20.26C86.1179 19.64 85.9346 19.1433 85.5679 18.77C85.2079 18.3967 84.7712 18.21 84.2579 18.21C83.7512 18.21 83.3146 18.39 82.9479 18.75C82.5879 19.11 82.4079 19.6 82.4079 20.22C82.4079 20.84 82.5912 21.3433 82.9579 21.73C83.3246 22.1167 83.7612 22.31 84.2679 22.31C84.7746 22.31 85.2079 22.1233 85.5679 21.75ZM84.0979 23.09C83.3512 23.09 82.7279 22.8233 82.2279 22.29C81.7279 21.75 81.4779 21.0633 81.4779 20.23C81.4779 19.39 81.7246 18.7133 82.2179 18.2C82.7179 17.68 83.3446 17.42 84.0979 17.42C84.5646 17.42 84.9712 17.53 85.3179 17.75C85.6712 17.97 85.9379 18.2567 86.1179 18.61V17.51H87.0379V23H86.1179V21.88C85.9379 22.24 85.6712 22.5333 85.3179 22.76C84.9712 22.98 84.5646 23.09 84.0979 23.09ZM95.2652 21.75C95.6318 21.3767 95.8152 20.88 95.8152 20.26C95.8152 19.64 95.6318 19.1433 95.2652 18.77C94.9052 18.3967 94.4685 18.21 93.9552 18.21C93.4485 18.21 93.0118 18.39 92.6452 18.75C92.2852 19.11 92.1052 19.6 92.1052 20.22C92.1052 20.84 92.2885 21.3433 92.6552 21.73C93.0218 22.1167 93.4585 22.31 93.9652 22.31C94.4718 22.31 94.9052 22.1233 95.2652 21.75ZM93.7952 23.09C93.0485 23.09 92.4252 22.8233 91.9252 22.29C91.4252 21.75 91.1752 21.0633 91.1752 20.23C91.1752 19.39 91.4218 18.7133 91.9152 18.2C92.4152 17.68 93.0418 17.42 93.7952 17.42C94.2618 17.42 94.6685 17.53 95.0152 17.75C95.3685 17.97 95.6352 18.2567 95.8152 18.61V17.51H96.7352V25.6H95.8152V21.88C95.6352 22.24 95.3685 22.5333 95.0152 22.76C94.6685 22.98 94.2618 23.09 93.7952 23.09ZM102.104 17.51H103.014V23H102.104V22.12C101.738 22.7667 101.141 23.09 100.314 23.09C99.7077 23.09 99.201 22.89 98.7944 22.49C98.3877 22.0833 98.1844 21.51 98.1844 20.77V17.51H99.0844V20.62C99.0844 21.1667 99.2177 21.5867 99.4844 21.88C99.7577 22.1667 100.128 22.31 100.594 22.31C101.061 22.31 101.428 22.1667 101.694 21.88C101.968 21.5867 102.104 21.1667 102.104 20.62V17.51ZM106.814 23.09C106.027 23.09 105.387 22.83 104.894 22.31C104.4 21.79 104.154 21.1033 104.154 20.25C104.154 19.3967 104.404 18.7133 104.904 18.2C105.404 17.68 106.05 17.42 106.844 17.42C107.644 17.42 108.284 17.6667 108.764 18.16C109.25 18.6467 109.494 19.27 109.494 20.03C109.494 20.2233 109.48 20.4033 109.454 20.57H105.084C105.11 21.1167 105.28 21.55 105.594 21.87C105.914 22.1833 106.32 22.34 106.814 22.34C107.187 22.34 107.5 22.2567 107.754 22.09C108.014 21.9233 108.204 21.7033 108.324 21.43H109.304C109.13 21.91 108.83 22.3067 108.404 22.62C107.984 22.9333 107.454 23.09 106.814 23.09ZM108.544 19.91C108.537 19.3833 108.37 18.9633 108.044 18.65C107.717 18.33 107.31 18.17 106.824 18.17C106.344 18.17 105.944 18.3267 105.624 18.64C105.304 18.9467 105.127 19.37 105.094 19.91H108.544ZM110.427 19.06C110.427 18.6 110.617 18.2133 110.997 17.9C111.384 17.58 111.88 17.42 112.487 17.42C113.1 17.42 113.58 17.5767 113.927 17.89C114.274 18.1967 114.464 18.62 114.497 19.16H113.557C113.544 18.8533 113.44 18.6067 113.247 18.42C113.054 18.2333 112.784 18.14 112.437 18.14C112.097 18.14 111.827 18.2233 111.627 18.39C111.434 18.55 111.337 18.76 111.337 19.02C111.337 19.2733 111.447 19.47 111.667 19.61C111.894 19.75 112.164 19.8533 112.477 19.92C112.797 19.98 113.114 20.0533 113.427 20.14C113.747 20.22 114.017 20.3767 114.237 20.61C114.464 20.8367 114.577 21.1633 114.577 21.59C114.577 22.01 114.384 22.3667 113.997 22.66C113.617 22.9467 113.12 23.09 112.507 23.09C111.894 23.09 111.4 22.9367 111.027 22.63C110.66 22.3233 110.46 21.9 110.427 21.36H111.367C111.38 21.6667 111.487 21.9133 111.687 22.1C111.894 22.28 112.174 22.37 112.527 22.37C112.887 22.37 113.167 22.2933 113.367 22.14C113.574 21.9867 113.677 21.7933 113.677 21.56C113.677 21.32 113.597 21.13 113.437 20.99C113.277 20.85 113.077 20.7533 112.837 20.7C112.597 20.6467 112.334 20.5833 112.047 20.51C111.767 20.4367 111.507 20.36 111.267 20.28C111.027 20.1933 110.827 20.0467 110.667 19.84C110.507 19.6333 110.427 19.3733 110.427 19.06ZM117.691 22.26H118.441V23H117.521C116.567 23 116.091 22.53 116.091 21.59V18.25H115.381V17.51H116.091V16.15H117.011V17.51H118.431V18.25H117.011V21.59C117.011 21.8367 117.061 22.01 117.161 22.11C117.261 22.21 117.437 22.26 117.691 22.26ZM120.345 16.45C120.225 16.57 120.079 16.63 119.905 16.63C119.732 16.63 119.585 16.57 119.465 16.45C119.352 16.33 119.295 16.1833 119.295 16.01C119.295 15.8367 119.355 15.69 119.475 15.57C119.595 15.45 119.739 15.39 119.905 15.39C120.079 15.39 120.225 15.45 120.345 15.57C120.465 15.69 120.525 15.8367 120.525 16.01C120.525 16.1833 120.465 16.33 120.345 16.45ZM119.445 23V17.51H120.355V23H119.445ZM124.197 22.34C124.711 22.34 125.154 22.1567 125.527 21.79C125.907 21.4167 126.097 20.9033 126.097 20.25C126.097 19.5967 125.917 19.0867 125.557 18.72C125.197 18.3533 124.757 18.17 124.237 18.17C123.724 18.17 123.294 18.3533 122.947 18.72C122.601 19.0867 122.427 19.6 122.427 20.26C122.427 20.9133 122.594 21.4233 122.927 21.79C123.261 22.1567 123.684 22.34 124.197 22.34ZM122.247 22.31C121.747 21.79 121.497 21.1067 121.497 20.26C121.497 19.4133 121.761 18.73 122.287 18.21C122.814 17.6833 123.474 17.42 124.267 17.42C125.061 17.42 125.721 17.6833 126.247 18.21C126.774 18.73 127.037 19.4133 127.037 20.26C127.037 21.1 126.761 21.7833 126.207 22.31C125.661 22.83 124.991 23.09 124.197 23.09C123.404 23.09 122.754 22.83 122.247 22.31ZM129.086 17.51V18.4C129.459 17.7467 130.056 17.42 130.876 17.42C131.482 17.42 131.989 17.6233 132.396 18.03C132.802 18.43 133.006 19.0033 133.006 19.75V23H132.106V19.9C132.106 19.3467 131.972 18.9267 131.706 18.64C131.439 18.3533 131.069 18.21 130.596 18.21C130.129 18.21 129.759 18.3533 129.486 18.64C129.219 18.9267 129.086 19.3467 129.086 19.9V23H128.176V17.51H129.086ZM136.255 23.08C136.095 23.08 135.958 23.0233 135.845 22.91C135.732 22.7967 135.675 22.66 135.675 22.5C135.675 22.3333 135.732 22.1933 135.845 22.08C135.958 21.9667 136.095 21.91 136.255 21.91C136.422 21.91 136.562 21.9667 136.675 22.08C136.788 22.1933 136.845 22.3333 136.845 22.5C136.845 22.66 136.788 22.7967 136.675 22.91C136.562 23.0233 136.422 23.08 136.255 23.08ZM134.695 17.6C134.688 16.9867 134.885 16.4967 135.285 16.13C135.692 15.7633 136.222 15.58 136.875 15.58C137.535 15.58 138.062 15.7633 138.455 16.13C138.855 16.4967 139.055 17.0233 139.055 17.71C139.055 18.39 138.855 18.89 138.455 19.21C138.062 19.5233 137.465 19.6833 136.665 19.69V21.01H135.805V19.04H136.205C136.878 19.0467 137.378 18.9567 137.705 18.77C138.032 18.5767 138.195 18.2 138.195 17.64C138.195 17.2333 138.078 16.9167 137.845 16.69C137.612 16.4633 137.288 16.35 136.875 16.35C136.462 16.35 136.135 16.46 135.895 16.68C135.662 16.8933 135.545 17.2 135.545 17.6H134.695Z" fill="white"/>
<path d="M19.612 38.86C19.276 38.86 19 38.948 18.784 39.124C18.576 39.292 18.472 39.528 18.472 39.832C18.472 40.136 18.548 40.376 18.7 40.552C18.86 40.72 19.068 40.852 19.324 40.948C19.58 41.036 19.86 41.116 20.164 41.188C20.468 41.26 20.772 41.348 21.076 41.452C21.38 41.556 21.66 41.684 21.916 41.836C22.172 41.988 22.376 42.212 22.528 42.508C22.688 42.796 22.768 43.148 22.768 43.564C22.768 44.252 22.492 44.844 21.94 45.34C21.396 45.836 20.668 46.084 19.756 46.084C18.852 46.084 18.12 45.872 17.56 45.448C17 45.016 16.72 44.412 16.72 43.636H18.52C18.584 44.372 19.004 44.74 19.78 44.74C20.164 44.74 20.468 44.64 20.692 44.44C20.916 44.24 21.028 43.976 21.028 43.648C21.028 43.312 20.88 43.048 20.584 42.856C20.288 42.664 19.928 42.52 19.504 42.424C19.088 42.328 18.668 42.212 18.244 42.076C17.82 41.94 17.46 41.704 17.164 41.368C16.868 41.024 16.72 40.572 16.72 40.012C16.72 39.252 16.996 38.644 17.548 38.188C18.1 37.732 18.808 37.504 19.672 37.504C20.544 37.504 21.244 37.704 21.772 38.104C22.3 38.496 22.588 39.096 22.636 39.904H20.788C20.756 39.584 20.636 39.332 20.428 39.148C20.22 38.956 19.948 38.86 19.612 38.86ZM27.1963 46.096C26.2283 46.096 25.4403 45.784 24.8323 45.16C24.2243 44.528 23.9203 43.696 23.9203 42.664C23.9203 41.632 24.2243 40.808 24.8323 40.192C25.4483 39.568 26.2403 39.256 27.2083 39.256C28.1843 39.256 28.9843 39.56 29.6083 40.168C30.2323 40.768 30.5443 41.572 30.5443 42.58C30.5443 42.812 30.5283 43.028 30.4963 43.228H25.6483C25.6883 43.66 25.8483 44.008 26.1283 44.272C26.4083 44.536 26.7643 44.668 27.1963 44.668C27.7803 44.668 28.2123 44.428 28.4923 43.948H30.3163C30.1243 44.58 29.7523 45.096 29.2003 45.496C28.6483 45.896 27.9803 46.096 27.1963 46.096ZM28.7923 42.136C28.7683 41.696 28.6043 41.344 28.3003 41.08C28.0043 40.816 27.6443 40.684 27.2203 40.684C26.7963 40.684 26.4403 40.816 26.1523 41.08C25.8723 41.344 25.7043 41.696 25.6483 42.136H28.7923ZM33.5686 39.352V40.348C33.9926 39.62 34.6806 39.256 35.6326 39.256C36.3926 39.256 37.0126 39.508 37.4926 40.012C37.9726 40.508 38.2126 41.2 38.2126 42.088V46H36.5326V42.328C36.5326 41.808 36.4006 41.412 36.1366 41.14C35.8726 40.86 35.5126 40.72 35.0566 40.72C34.6006 40.72 34.2366 40.86 33.9646 41.14C33.7006 41.412 33.5686 41.808 33.5686 42.328V46H31.8766V39.352H33.5686ZM44.1868 44.116C44.5388 43.764 44.7148 43.284 44.7148 42.676C44.7148 42.068 44.5388 41.592 44.1868 41.248C43.8348 40.896 43.4228 40.72 42.9508 40.72C42.4788 40.72 42.0668 40.892 41.7148 41.236C41.3708 41.58 41.1988 42.056 41.1988 42.664C41.1988 43.272 41.3748 43.752 41.7268 44.104C42.0788 44.456 42.4868 44.632 42.9508 44.632C43.4228 44.632 43.8348 44.46 44.1868 44.116ZM40.3708 45.136C39.7788 44.488 39.4828 43.664 39.4828 42.664C39.4828 41.664 39.7788 40.848 40.3708 40.216C40.9628 39.576 41.7148 39.256 42.6268 39.256C43.5388 39.256 44.2348 39.632 44.7148 40.384V37.12H46.3948V46H44.7148V44.884C44.2108 45.692 43.5108 46.096 42.6148 46.096C41.7188 46.096 40.9708 45.776 40.3708 45.136ZM56.3707 39.352H58.0627V46H56.3707V44.992C55.9467 45.72 55.2547 46.084 54.2947 46.084C53.5427 46.084 52.9267 45.836 52.4467 45.34C51.9667 44.836 51.7267 44.14 51.7267 43.252V39.352H53.4067V43.012C53.4067 43.532 53.5387 43.932 53.8027 44.212C54.0667 44.492 54.4267 44.632 54.8827 44.632C55.3387 44.632 55.6987 44.492 55.9627 44.212C56.2347 43.932 56.3707 43.532 56.3707 43.012V39.352ZM59.4889 41.296C59.4889 40.72 59.7329 40.236 60.2209 39.844C60.7089 39.452 61.3569 39.256 62.1649 39.256C62.9729 39.256 63.6209 39.452 64.1089 39.844C64.5969 40.228 64.8569 40.752 64.8889 41.416H63.1609C63.1129 40.856 62.7689 40.576 62.1289 40.576C61.8089 40.576 61.5609 40.64 61.3849 40.768C61.2089 40.896 61.1209 41.072 61.1209 41.296C61.1209 41.52 61.2529 41.696 61.5169 41.824C61.7809 41.952 62.1009 42.052 62.4769 42.124C62.8529 42.196 63.2249 42.288 63.5929 42.4C63.9689 42.504 64.2889 42.696 64.5529 42.976C64.8169 43.248 64.9489 43.612 64.9489 44.068C64.9489 44.668 64.6929 45.156 64.1809 45.532C63.6769 45.908 63.0289 46.096 62.2369 46.096C61.4529 46.096 60.8089 45.912 60.3049 45.544C59.8009 45.168 59.5249 44.632 59.4769 43.936H61.2049C61.2689 44.496 61.6249 44.776 62.2729 44.776C62.5849 44.776 62.8369 44.708 63.0289 44.572C63.2209 44.428 63.3169 44.244 63.3169 44.02C63.3169 43.788 63.1849 43.608 62.9209 43.48C62.6569 43.344 62.3369 43.24 61.9609 43.168C61.5849 43.096 61.2089 43.008 60.8329 42.904C60.4649 42.8 60.1489 42.616 59.8849 42.352C59.6209 42.08 59.4889 41.728 59.4889 41.296ZM74.2219 44.116C74.5739 43.764 74.7499 43.284 74.7499 42.676C74.7499 42.068 74.5739 41.592 74.2219 41.248C73.8699 40.896 73.4579 40.72 72.9859 40.72C72.5139 40.72 72.1019 40.892 71.7499 41.236C71.4059 41.58 71.2339 42.056 71.2339 42.664C71.2339 43.272 71.4099 43.752 71.7619 44.104C72.1139 44.456 72.5219 44.632 72.9859 44.632C73.4579 44.632 73.8699 44.46 74.2219 44.116ZM70.4059 45.136C69.8139 44.488 69.5179 43.664 69.5179 42.664C69.5179 41.664 69.8139 40.848 70.4059 40.216C70.9979 39.576 71.7499 39.256 72.6619 39.256C73.5739 39.256 74.2699 39.632 74.7499 40.384V39.352H76.4299V46H74.7499V44.884C74.2459 45.692 73.5459 46.096 72.6499 46.096C71.7539 46.096 71.0059 45.776 70.4059 45.136ZM83.5139 39.352V40.348C83.9379 39.62 84.6259 39.256 85.5779 39.256C86.0819 39.256 86.5299 39.372 86.9219 39.604C87.3219 39.836 87.6299 40.168 87.8459 40.6C88.0779 40.184 88.3939 39.856 88.7939 39.616C89.2019 39.376 89.6579 39.256 90.1619 39.256C90.9539 39.256 91.5899 39.504 92.0699 40C92.5579 40.496 92.8019 41.192 92.8019 42.088V46H91.1219V42.328C91.1219 41.808 90.9899 41.412 90.7259 41.14C90.4619 40.86 90.1019 40.72 89.6459 40.72C89.1899 40.72 88.8259 40.86 88.5539 41.14C88.2899 41.412 88.1579 41.808 88.1579 42.328V46H86.4779V42.328C86.4779 41.808 86.3459 41.412 86.0819 41.14C85.8179 40.86 85.4579 40.72 85.0019 40.72C84.5459 40.72 84.1819 40.86 83.9099 41.14C83.6459 41.412 83.5139 41.808 83.5139 42.328V46H81.8219V39.352H83.5139ZM97.3447 46.096C96.3767 46.096 95.5887 45.784 94.9807 45.16C94.3727 44.528 94.0687 43.696 94.0687 42.664C94.0687 41.632 94.3727 40.808 94.9807 40.192C95.5967 39.568 96.3887 39.256 97.3567 39.256C98.3327 39.256 99.1327 39.56 99.7567 40.168C100.381 40.768 100.693 41.572 100.693 42.58C100.693 42.812 100.677 43.028 100.645 43.228H95.7967C95.8367 43.66 95.9967 44.008 96.2767 44.272C96.5567 44.536 96.9127 44.668 97.3447 44.668C97.9287 44.668 98.3607 44.428 98.6407 43.948H100.465C100.273 44.58 99.9007 45.096 99.3487 45.496C98.7967 45.896 98.1287 46.096 97.3447 46.096ZM98.9407 42.136C98.9167 41.696 98.7527 41.344 98.4487 41.08C98.1527 40.816 97.7927 40.684 97.3687 40.684C96.9447 40.684 96.5887 40.816 96.3007 41.08C96.0207 41.344 95.8527 41.696 95.7967 42.136H98.9407ZM101.653 41.296C101.653 40.72 101.897 40.236 102.385 39.844C102.873 39.452 103.521 39.256 104.329 39.256C105.137 39.256 105.785 39.452 106.273 39.844C106.761 40.228 107.021 40.752 107.053 41.416H105.325C105.277 40.856 104.933 40.576 104.293 40.576C103.973 40.576 103.725 40.64 103.549 40.768C103.373 40.896 103.285 41.072 103.285 41.296C103.285 41.52 103.417 41.696 103.681 41.824C103.945 41.952 104.265 42.052 104.641 42.124C105.017 42.196 105.389 42.288 105.757 42.4C106.133 42.504 106.453 42.696 106.717 42.976C106.981 43.248 107.113 43.612 107.113 44.068C107.113 44.668 106.857 45.156 106.345 45.532C105.841 45.908 105.193 46.096 104.401 46.096C103.617 46.096 102.973 45.912 102.469 45.544C101.965 45.168 101.689 44.632 101.641 43.936H103.369C103.433 44.496 103.789 44.776 104.437 44.776C104.749 44.776 105.001 44.708 105.193 44.572C105.385 44.428 105.481 44.244 105.481 44.02C105.481 43.788 105.349 43.608 105.085 43.48C104.821 43.344 104.501 43.24 104.125 43.168C103.749 43.096 103.373 43.008 102.997 42.904C102.629 42.8 102.313 42.616 102.049 42.352C101.785 42.08 101.653 41.728 101.653 41.296ZM108.18 41.296C108.18 40.72 108.424 40.236 108.912 39.844C109.4 39.452 110.048 39.256 110.856 39.256C111.664 39.256 112.312 39.452 112.8 39.844C113.288 40.228 113.548 40.752 113.58 41.416H111.852C111.804 40.856 111.46 40.576 110.82 40.576C110.5 40.576 110.252 40.64 110.076 40.768C109.9 40.896 109.812 41.072 109.812 41.296C109.812 41.52 109.944 41.696 110.208 41.824C110.472 41.952 110.792 42.052 111.168 42.124C111.544 42.196 111.916 42.288 112.284 42.4C112.66 42.504 112.98 42.696 113.244 42.976C113.508 43.248 113.64 43.612 113.64 44.068C113.64 44.668 113.384 45.156 112.872 45.532C112.368 45.908 111.72 46.096 110.928 46.096C110.144 46.096 109.5 45.912 108.996 45.544C108.492 45.168 108.216 44.632 108.168 43.936H109.896C109.96 44.496 110.316 44.776 110.964 44.776C111.276 44.776 111.528 44.708 111.72 44.572C111.912 44.428 112.008 44.244 112.008 44.02C112.008 43.788 111.876 43.608 111.612 43.48C111.348 43.344 111.028 43.24 110.652 43.168C110.276 43.096 109.9 43.008 109.524 42.904C109.156 42.8 108.84 42.616 108.576 42.352C108.312 42.08 108.18 41.728 108.18 41.296ZM119.316 44.116C119.668 43.764 119.844 43.284 119.844 42.676C119.844 42.068 119.668 41.592 119.316 41.248C118.964 40.896 118.552 40.72 118.08 40.72C117.608 40.72 117.196 40.892 116.844 41.236C116.5 41.58 116.328 42.056 116.328 42.664C116.328 43.272 116.504 43.752 116.856 44.104C117.208 44.456 117.616 44.632 118.08 44.632C118.552 44.632 118.964 44.46 119.316 44.116ZM115.5 45.136C114.908 44.488 114.612 43.664 114.612 42.664C114.612 41.664 114.908 40.848 115.5 40.216C116.092 39.576 116.844 39.256 117.756 39.256C118.668 39.256 119.364 39.632 119.844 40.384V39.352H121.524V46H119.844V44.884C119.34 45.692 118.64 46.096 117.744 46.096C116.848 46.096 116.1 45.776 115.5 45.136ZM123.738 45.136C123.146 44.488 122.85 43.664 122.85 42.664C122.85 41.664 123.146 40.848 123.738 40.216C124.33 39.576 125.082 39.256 125.994 39.256C126.906 39.256 127.602 39.632 128.082 40.384V39.352H129.762V46.048C129.762 47 129.482 47.776 128.922 48.376C128.362 48.984 127.574 49.288 126.558 49.288C125.55 49.288 124.746 49.076 124.146 48.652C123.554 48.236 123.218 47.64 123.138 46.864H124.794C124.898 47.16 125.098 47.392 125.394 47.56C125.69 47.736 126.062 47.824 126.51 47.824C126.958 47.824 127.33 47.676 127.626 47.38C127.93 47.084 128.082 46.64 128.082 46.048V44.884C127.578 45.692 126.878 46.096 125.982 46.096C125.086 46.096 124.338 45.776 123.738 45.136ZM127.554 44.116C127.906 43.764 128.082 43.284 128.082 42.676C128.082 42.068 127.906 41.592 127.554 41.248C127.202 40.896 126.79 40.72 126.318 40.72C125.846 40.72 125.434 40.892 125.082 41.236C124.738 41.58 124.566 42.056 124.566 42.664C124.566 43.272 124.742 43.752 125.094 44.104C125.446 44.456 125.854 44.632 126.318 44.632C126.79 44.632 127.202 44.46 127.554 44.116ZM134.364 46.096C133.396 46.096 132.608 45.784 132 45.16C131.392 44.528 131.088 43.696 131.088 42.664C131.088 41.632 131.392 40.808 132 40.192C132.616 39.568 133.408 39.256 134.376 39.256C135.352 39.256 136.152 39.56 136.776 40.168C137.4 40.768 137.712 41.572 137.712 42.58C137.712 42.812 137.696 43.028 137.664 43.228H132.816C132.856 43.66 133.016 44.008 133.296 44.272C133.576 44.536 133.932 44.668 134.364 44.668C134.948 44.668 135.38 44.428 135.66 43.948H137.484C137.292 44.58 136.92 45.096 136.368 45.496C135.816 45.896 135.148 46.096 134.364 46.096ZM135.96 42.136C135.936 41.696 135.772 41.344 135.468 41.08C135.172 40.816 134.812 40.684 134.388 40.684C133.964 40.684 133.608 40.816 133.32 41.08C133.04 41.344 132.872 41.696 132.816 42.136H135.96Z" fill="#FCE300"/>
<g clip-path="url(#clip1_118_11119)">
<path fill-rule="evenodd" clip-rule="evenodd" d="M210.729 54.3917L180.106 41.8275C179.305 41.4992 178.919 40.5759 179.247 39.7757L187.491 19.6835C187.819 18.8831 188.743 18.4972 189.543 18.8255L220.166 31.3897C220.966 31.718 221.353 32.6413 221.024 33.4417L212.781 53.5338C212.452 54.334 211.529 54.72 210.729 54.3917Z" fill="#FEF499"/>
<path fill-rule="evenodd" clip-rule="evenodd" d="M210.509 54.9277L179.885 42.3634C178.788 41.9131 178.261 40.6535 178.711 39.5558L186.955 19.4637C187.405 18.3658 188.665 17.8391 189.763 18.2895L220.386 30.8537C221.484 31.3041 222.01 32.5637 221.56 33.6615L213.316 53.7537C212.866 54.8514 211.606 55.3781 210.509 54.9277ZM189.323 19.3612C188.816 19.1533 188.235 19.3966 188.027 19.9033L179.783 39.9954C179.575 40.5021 179.819 41.0834 180.325 41.2913L210.949 53.8555C211.455 54.0634 212.037 53.8203 212.244 53.3137L220.488 33.2215C220.696 32.7148 220.453 32.1334 219.946 31.9255L189.323 19.3612Z" fill="url(#paint0_linear_118_11119)"/>
<path fill-rule="evenodd" clip-rule="evenodd" d="M179.719 40.941L204.137 27.8896L212.154 54.2484" fill="#FCE300"/>
<path fill-rule="evenodd" clip-rule="evenodd" d="M211.935 54.7846C211.779 54.7207 211.653 54.5903 211.6 54.4169L203.788 28.7331L179.993 41.4519C179.711 41.6027 179.36 41.4963 179.209 41.2139C179.058 40.9318 179.164 40.5808 179.446 40.43L203.866 27.3729C204.019 27.2914 204.202 27.2763 204.362 27.3419C204.362 27.3422 204.363 27.3424 204.363 27.3424C204.524 27.4084 204.643 27.5493 204.694 27.7151L212.71 54.0768C212.803 54.383 212.629 54.7081 212.323 54.8013C212.19 54.8415 212.054 54.8334 211.935 54.7846Z" fill="url(#paint1_linear_118_11119)"/>
<path fill-rule="evenodd" clip-rule="evenodd" d="M221.087 33.6301C217.312 42.8326 207.081 48.0795 197.783 44.2647C188.485 40.4498 183.848 29.1029 187.624 19.9004" fill="#FCE300"/>
<path fill-rule="evenodd" clip-rule="evenodd" d="M197.563 44.8007C193.002 42.9293 189.248 39.111 187.265 34.3247C185.29 29.5573 185.225 24.2196 187.087 19.6805C187.209 19.3845 187.547 19.243 187.843 19.3644C188.139 19.4859 188.281 19.8243 188.159 20.1203C186.412 24.3786 186.477 29.3941 188.336 33.8812C190.201 38.3843 193.725 41.9737 198.003 43.7287C202.274 45.4811 206.981 45.3306 211.258 43.3053C215.447 41.3217 218.747 37.8074 220.551 33.4102C220.673 33.1142 221.011 32.9727 221.307 33.0941C221.603 33.2156 221.745 33.554 221.623 33.85C219.709 38.5151 216.204 42.2449 211.754 44.3526C207.179 46.5191 202.139 46.6783 197.563 44.8007Z" fill="url(#paint2_linear_118_11119)"/>
<path fill-rule="evenodd" clip-rule="evenodd" d="M198.522 29.1467C198.263 29.7781 197.541 30.0798 196.91 29.8208C196.278 29.5618 195.976 28.8401 196.235 28.2087C196.494 27.5773 197.216 27.2754 197.848 27.5345C198.479 27.7935 198.781 28.5153 198.522 29.1467Z" fill="url(#paint3_linear_118_11119)"/>
<path fill-rule="evenodd" clip-rule="evenodd" d="M209.121 33.4963C208.862 34.1277 208.141 34.4294 207.509 34.1704C206.878 33.9114 206.576 33.1897 206.835 32.5583C207.094 31.9269 207.816 31.625 208.447 31.8841C209.079 32.1431 209.381 32.865 209.121 33.4963Z" fill="url(#paint4_linear_118_11119)"/>
<path fill-rule="evenodd" clip-rule="evenodd" d="M201.783 38.344C201.291 39.543 200.131 40.2024 199.191 39.817C198.252 39.4316 197.889 38.1473 198.381 36.9483C198.873 35.7493 200.033 35.0898 200.973 35.4752C201.912 35.8606 202.275 37.145 201.783 38.344Z" fill="url(#paint5_linear_118_11119)"/>
<path fill-rule="evenodd" clip-rule="evenodd" d="M219.303 50.6694L224.928 36.9584C225.781 34.8816 229.285 31.1774 231.362 32.0294C233.439 32.8816 233.332 37.98 232.48 40.0568L226.855 53.7678C226.855 53.7678 226.258 55.2227 222.482 53.6734C218.498 52.039 219.303 50.6694 219.303 50.6694Z" fill="#FDEE66"/>
<path fill-rule="evenodd" clip-rule="evenodd" d="M222.262 54.2094C220.256 53.3863 219.073 52.4783 218.747 51.5106C218.565 50.9701 218.704 50.5787 218.775 50.4292L224.393 36.7384C225.223 34.7154 228.989 30.4294 231.582 31.4934C234.176 32.5575 233.847 38.2537 233.017 40.2766L227.391 53.9877C227.308 54.1914 226.453 55.9288 222.262 54.2094ZM219.817 50.9459C219.764 51.2122 220.172 52.0996 222.702 53.1376C225.208 54.1658 226.162 53.7709 226.33 53.5216L231.945 39.837C232.352 38.844 232.557 37.1134 232.442 35.6285C232.316 33.9927 231.83 32.8478 231.142 32.5656C230.455 32.2834 229.305 32.7572 228.066 33.833C226.942 34.8097 225.872 36.1853 225.464 37.1783L219.839 50.8894C219.82 50.9367 219.835 50.9236 219.817 50.9459Z" fill="url(#paint6_linear_118_11119)"/>
<path fill-rule="evenodd" clip-rule="evenodd" d="M227.987 39.4603C225.741 38.5386 224.724 37.4847 224.662 37.419C224.442 37.1862 224.453 36.8196 224.686 36.6C224.918 36.3814 225.283 36.3913 225.504 36.6226C225.534 36.6548 227.619 38.7659 232.509 39.4611C232.827 39.5071 233.046 39.7997 233.001 40.1163C232.956 40.4331 232.663 40.6534 232.346 40.6083C230.559 40.3544 229.117 39.9239 227.987 39.4603Z" fill="url(#paint7_linear_118_11119)"/>
<path fill-rule="evenodd" clip-rule="evenodd" d="M223.363 51.1632C221.068 50.2213 219.965 49.1382 219.898 49.0705C219.672 48.8438 219.672 48.4769 219.899 48.2511C220.126 48.0259 220.492 48.0256 220.717 48.2516C220.752 48.2855 223.037 50.4889 227.942 51.1864C228.259 51.232 228.479 51.5249 228.433 51.8416C228.389 52.1582 228.095 52.3785 227.778 52.3335C225.989 52.079 224.523 51.6392 223.363 51.1632Z" fill="url(#paint8_linear_118_11119)"/>
<path fill-rule="evenodd" clip-rule="evenodd" d="M228.359 49.1624C227.44 48.7856 227.26 47.1057 227.955 45.4104C228.651 43.7151 229.959 42.6463 230.878 43.023" fill="#FDEE66"/>
<path fill-rule="evenodd" clip-rule="evenodd" d="M228.139 49.6982C226.886 49.184 226.576 47.2462 227.42 45.1907C228.263 43.135 229.844 41.9728 231.098 42.487C231.394 42.6085 231.535 42.9469 231.414 43.2429C231.292 43.539 230.954 43.6804 230.658 43.559C230.137 43.3452 229.077 44.2036 228.492 45.6305C227.906 47.0573 228.058 48.4124 228.579 48.6262C228.875 48.7477 229.017 49.086 228.895 49.3821C228.774 49.6781 228.435 49.8196 228.139 49.6982Z" fill="url(#paint9_linear_118_11119)"/>
<path fill-rule="evenodd" clip-rule="evenodd" d="M217.776 54.8262C217.776 54.8262 212.279 60.7283 217.438 66.4064C217.438 66.4064 224.631 67.127 225.33 57.9254" fill="#F2F2F2"/>
<path fill-rule="evenodd" clip-rule="evenodd" d="M217.218 66.9422C217.139 66.9098 217.068 66.8602 217.009 66.7958C211.555 60.7926 217.294 54.494 217.353 54.431C217.57 54.1969 217.937 54.1832 218.171 54.4021C218.405 54.62 218.418 54.9865 218.201 55.2204C218.176 55.2473 216.882 56.6655 216.21 58.7059C215.355 61.3062 215.859 63.7048 217.709 65.8385C218.351 65.848 220.329 65.7497 222.006 64.3362C223.606 62.9881 224.53 60.8165 224.753 57.8813C224.777 57.5621 225.055 57.3233 225.374 57.3475C225.692 57.3715 225.932 57.6501 225.908 57.9692C225.66 61.2354 224.593 63.6801 222.737 65.2352C220.331 67.2524 217.5 66.9949 217.38 66.9827C217.324 66.9772 217.27 66.9634 217.218 66.9422Z" fill="#E6E6E6"/>
<path fill-rule="evenodd" clip-rule="evenodd" d="M219.803 55.0186C219.803 55.0186 216.895 58.1402 219.624 61.1433C219.624 61.1433 223.428 61.5244 223.798 56.6577" fill="#E6E6E6"/>
<path fill-rule="evenodd" clip-rule="evenodd" d="M219.404 61.6794C219.325 61.647 219.254 61.5972 219.195 61.533C216.754 58.8453 218.248 55.8384 219.379 54.6237C219.597 54.3896 219.964 54.3762 220.198 54.5948C220.432 54.8126 220.445 55.1785 220.228 55.4127C220.122 55.5279 217.839 58.0659 219.893 60.5694C220.282 60.5574 221.139 60.4547 221.871 59.8346C222.654 59.1702 223.109 58.0866 223.221 56.6138C223.245 56.2948 223.523 56.056 223.842 56.0802C224.16 56.1042 224.4 56.3824 224.376 56.7018C224.239 58.5052 223.642 59.8617 222.602 60.7331C221.242 61.873 219.634 61.7266 219.566 61.7199C219.51 61.7144 219.455 61.7005 219.404 61.6794Z" fill="#CCCCCC"/>
<path fill-rule="evenodd" clip-rule="evenodd" d="M176.653 33.1704L182.278 19.4594C183.13 17.3826 183.237 12.2841 181.16 11.4321C179.083 10.58 175.578 14.2841 174.726 16.3609L169.101 30.072C169.101 30.072 168.504 31.5268 172.28 33.076C176.263 34.7105 176.653 33.1704 176.653 33.1704Z" fill="#FDEE66"/>
<path fill-rule="evenodd" clip-rule="evenodd" d="M172.06 33.6121C167.869 31.8926 168.481 30.0558 168.565 29.8521L174.19 16.141C175.02 14.1181 178.786 9.83205 181.38 10.8961C183.973 11.9602 183.644 17.6563 182.814 19.6793L177.197 33.3702C177.143 33.527 176.967 33.903 176.458 34.1599C175.546 34.6196 174.066 34.4352 172.06 33.6121ZM169.647 30.2658C169.592 30.5611 169.994 31.5123 172.499 32.5405C175.029 33.5784 175.943 33.2331 176.093 33.0067C176.095 32.9782 176.097 32.9983 176.116 32.9509L181.742 19.2399C182.149 18.2469 182.354 16.5163 182.24 15.0314C182.114 13.3956 181.628 12.2507 180.94 11.9684C180.252 11.6862 179.102 12.16 177.863 13.2359C176.739 14.2126 175.669 15.5882 175.262 16.5812L169.647 30.2658Z" fill="url(#paint10_linear_118_11119)"/>
<path fill-rule="evenodd" clip-rule="evenodd" d="M178.445 19.1339C177.315 18.6702 175.987 17.9644 174.536 16.8898C174.279 16.6994 174.225 16.3365 174.415 16.0794C174.606 15.8223 174.968 15.7676 175.226 15.9585C179.238 18.9301 182.175 18.8593 182.204 18.8584C182.524 18.8471 182.793 19.0966 182.804 19.4163C182.816 19.736 182.566 20.0047 182.246 20.0163C182.156 20.0195 180.692 20.0554 178.445 19.1339Z" fill="url(#paint11_linear_118_11119)"/>
<path fill-rule="evenodd" clip-rule="evenodd" d="M173.726 30.797C172.565 30.3209 171.214 29.6052 169.761 28.529C169.504 28.3386 169.45 27.9757 169.64 27.7188C169.831 27.4616 170.194 27.4086 170.45 27.5979C174.442 30.5544 177.623 30.5826 177.655 30.5827C177.974 30.5823 178.234 30.8399 178.236 31.1589C178.238 31.4781 177.982 31.7384 177.662 31.7413C177.567 31.742 176.021 31.7387 173.726 30.797Z" fill="url(#paint12_linear_118_11119)"/>
<path fill-rule="evenodd" clip-rule="evenodd" d="M171.574 25.864C172.493 26.2407 173.801 25.1717 174.497 23.4764C175.192 21.7811 175.012 20.1014 174.093 19.7246" fill="#FDEE66"/>
<path fill-rule="evenodd" clip-rule="evenodd" d="M171.355 26.3998C171.059 26.2783 170.917 25.94 171.039 25.6439C171.16 25.3479 171.498 25.2064 171.795 25.3278C172.316 25.5416 173.375 24.6835 173.961 23.2567C174.546 21.8298 174.394 20.4744 173.874 20.2606C173.577 20.1392 173.436 19.8008 173.557 19.5047C173.679 19.2087 174.017 19.0672 174.313 19.1887C175.567 19.7029 175.876 21.6409 175.033 23.6965C174.189 25.752 172.608 26.9141 171.355 26.3998Z" fill="url(#paint13_linear_118_11119)"/>
<path fill-rule="evenodd" clip-rule="evenodd" d="M175.129 37.3293C175.129 37.3293 174.897 45.3918 167.237 45.8103C167.237 45.8103 161.611 41.2714 167.576 34.2301" fill="#F2F2F2"/>
<path fill-rule="evenodd" clip-rule="evenodd" d="M167.017 46.3455C166.966 46.3244 166.917 46.2959 166.874 46.2604C166.78 46.1853 164.584 44.3802 164.287 41.2539C164.059 38.8436 165.016 36.3543 167.134 33.8549C167.341 33.6108 167.707 33.5811 167.95 33.7872C168.194 33.994 168.225 34.3595 168.018 34.6037C166.115 36.8498 165.248 39.0446 165.439 41.1274C165.64 43.3107 166.978 44.7693 167.443 45.2152C170.272 44.9947 172.321 43.6302 173.536 41.1565C174.485 39.2239 174.55 37.3307 174.551 37.3118C174.56 36.9919 174.826 36.7401 175.146 36.7494C175.467 36.7581 175.718 37.0251 175.709 37.345C175.706 37.4311 175.368 45.9454 167.269 46.3879C167.182 46.3929 167.096 46.3779 167.017 46.3455Z" fill="#E6E6E6"/>
<path fill-rule="evenodd" clip-rule="evenodd" d="M173.551 36.0425C173.551 36.0425 173.428 40.3068 169.377 40.5282C169.377 40.5282 166.401 38.1275 169.556 34.4033" fill="#E6E6E6"/>
<path fill-rule="evenodd" clip-rule="evenodd" d="M169.157 41.0637C169.105 41.0426 169.057 41.0142 169.013 40.9786C168.96 40.9358 167.713 39.9105 167.545 38.1438C167.417 36.7932 167.945 35.4085 169.114 34.0286C169.321 33.7843 169.687 33.7547 169.93 33.9609C170.174 34.1677 170.205 34.5331 169.998 34.7773C169.038 35.9104 168.601 37.0064 168.699 38.0346C168.788 38.9808 169.321 39.6495 169.588 39.9299C172.813 39.5907 172.967 36.1728 172.972 36.0238C172.983 35.7047 173.25 35.4538 173.569 35.4639C173.889 35.4741 174.139 35.7397 174.13 36.0587C174.083 37.718 173.034 40.9078 169.408 41.1062C169.322 41.1109 169.236 41.0962 169.157 41.0637Z" fill="#CCCCCC"/>
<path fill-rule="evenodd" clip-rule="evenodd" d="M184.905 64.8643C184.609 64.7428 184.467 64.4044 184.588 64.1084L190.233 50.3514C190.354 50.0554 190.693 49.9139 190.989 50.0353C191.285 50.1568 191.426 50.4952 191.305 50.7912L185.66 64.5482C185.539 64.8442 185.201 64.9857 184.905 64.8643Z" fill="#E6E6E6"/>
<path fill-rule="evenodd" clip-rule="evenodd" d="M189.659 62.4321C189.363 62.3106 189.222 61.9722 189.343 61.6762L192.935 52.9217C193.057 52.6257 193.395 52.4842 193.691 52.6056C193.987 52.7271 194.129 53.0655 194.007 53.3615L190.415 62.116C190.294 62.412 189.955 62.5535 189.659 62.4321Z" fill="#CCCCCC"/>
<path fill-rule="evenodd" clip-rule="evenodd" d="M196.05 57.5386C195.754 57.4171 195.613 57.0787 195.734 56.7827L197.787 51.7801C197.908 51.4841 198.247 51.3426 198.543 51.464C198.839 51.5855 198.98 51.9239 198.859 52.2199L196.806 57.2225C196.685 57.5185 196.346 57.66 196.05 57.5386Z" fill="#E6E6E6"/>
<path fill-rule="evenodd" clip-rule="evenodd" d="M178.548 62.1047C177.111 61.5151 176.172 60.0256 176.35 58.4064C176.455 57.4572 176.922 56.6053 177.667 56.0079C178.412 55.4104 179.345 55.1388 180.294 55.243C180.613 55.2777 180.841 55.5639 180.807 55.8819C180.772 56.2001 180.485 56.4296 180.167 56.3946C179.526 56.3242 178.895 56.5078 178.392 56.9116C177.888 57.3156 177.572 57.8913 177.502 58.5328C177.431 59.1743 177.615 59.805 178.019 60.3084C178.423 60.8119 178.999 61.1277 179.64 61.1983C179.959 61.2327 180.188 61.5194 180.153 61.8373C180.118 62.1555 179.832 62.385 179.514 62.35C179.174 62.3128 178.85 62.2285 178.548 62.1047Z" fill="#CCCCCC"/>
<path fill-rule="evenodd" clip-rule="evenodd" d="M179.22 69.0643C179.15 69.0353 179.08 69.0044 179.011 68.9715C178.008 68.4955 177.251 67.6576 176.879 66.6122C176.507 65.5669 176.564 64.4392 177.04 63.4369C177.516 62.4345 178.354 61.6774 179.399 61.3054C179.7 61.198 180.032 61.3555 180.139 61.6568C180.247 61.9583 180.089 62.2896 179.788 62.3969C179.034 62.6653 178.43 63.2113 178.087 63.9339C177.743 64.6568 177.702 65.4699 177.97 66.2236C178.239 66.9775 178.785 67.5816 179.507 67.9248C180.23 68.2678 181.043 68.3093 181.797 68.0408C182.099 67.9335 182.43 68.0906 182.537 68.3923C182.644 68.6936 182.487 69.0251 182.186 69.1323C181.213 69.4788 180.168 69.4533 179.22 69.0643Z" fill="#CCCCCC"/>
</g>
</g>
<defs>
<linearGradient id="paint0_linear_118_11119" x1="217.438" y1="43.7075" x2="182.833" y2="29.5096" gradientUnits="userSpaceOnUse">
<stop stop-color="#F0BC68"/>
<stop offset="1" stop-color="#D8A149"/>
</linearGradient>
<linearGradient id="paint1_linear_118_11119" x1="216.743" y1="44.5897" x2="183.237" y2="30.8424" gradientUnits="userSpaceOnUse">
<stop stop-color="#F0BC68"/>
<stop offset="1" stop-color="#D8A149"/>
</linearGradient>
<linearGradient id="paint2_linear_118_11119" x1="218.077" y1="42.4932" x2="183.541" y2="28.3236" gradientUnits="userSpaceOnUse">
<stop stop-color="#F0BC68"/>
<stop offset="1" stop-color="#D8A149"/>
</linearGradient>
<linearGradient id="paint3_linear_118_11119" x1="198.522" y1="29.1466" x2="196.235" y2="28.2086" gradientUnits="userSpaceOnUse">
<stop stop-color="#F0BC68"/>
<stop offset="1" stop-color="#D8A149"/>
</linearGradient>
<linearGradient id="paint4_linear_118_11119" x1="209.122" y1="33.4963" x2="206.835" y2="32.5582" gradientUnits="userSpaceOnUse">
<stop stop-color="#F0BC68"/>
<stop offset="1" stop-color="#D8A149"/>
</linearGradient>
<linearGradient id="paint5_linear_118_11119" x1="201.783" y1="38.344" x2="198.381" y2="36.9483" gradientUnits="userSpaceOnUse">
<stop stop-color="#F0BC68"/>
<stop offset="1" stop-color="#D8A149"/>
</linearGradient>
<linearGradient id="paint6_linear_118_11119" x1="231.234" y1="44.6205" x2="222.609" y2="41.0816" gradientUnits="userSpaceOnUse">
<stop stop-color="#F0BC68"/>
<stop offset="1" stop-color="#D8A149"/>
</linearGradient>
<linearGradient id="paint7_linear_118_11119" x1="232.854" y1="40.5204" x2="224.438" y2="37.0674" gradientUnits="userSpaceOnUse">
<stop stop-color="#F0BC68"/>
<stop offset="1" stop-color="#D8A149"/>
</linearGradient>
<linearGradient id="paint8_linear_118_11119" x1="228.287" y1="52.246" x2="219.663" y2="48.7076" gradientUnits="userSpaceOnUse">
<stop stop-color="#F0BC68"/>
<stop offset="1" stop-color="#D8A149"/>
</linearGradient>
<linearGradient id="paint9_linear_118_11119" x1="230.154" y1="46.3125" x2="227.42" y2="45.1905" gradientUnits="userSpaceOnUse">
<stop stop-color="#F0BC68"/>
<stop offset="1" stop-color="#D8A149"/>
</linearGradient>
<linearGradient id="paint10_linear_118_11119" x1="181.033" y1="24.0239" x2="172.408" y2="20.4849" gradientUnits="userSpaceOnUse">
<stop stop-color="#F0BC68"/>
<stop offset="1" stop-color="#D8A149"/>
</linearGradient>
<linearGradient id="paint11_linear_118_11119" x1="182.652" y1="19.9229" x2="174.236" y2="16.4699" gradientUnits="userSpaceOnUse">
<stop stop-color="#F0BC68"/>
<stop offset="1" stop-color="#D8A149"/>
</linearGradient>
<linearGradient id="paint12_linear_118_11119" x1="178.084" y1="31.6478" x2="169.46" y2="28.1097" gradientUnits="userSpaceOnUse">
<stop stop-color="#F0BC68"/>
<stop offset="1" stop-color="#D8A149"/>
</linearGradient>
<linearGradient id="paint13_linear_118_11119" x1="175.033" y1="23.6964" x2="172.298" y2="22.5743" gradientUnits="userSpaceOnUse">
<stop stop-color="#F0BC68"/>
<stop offset="1" stop-color="#D8A149"/>
</linearGradient>
<clipPath id="clip0_118_11119">
<rect width="240" height="64" rx="4" fill="white"/>
</clipPath>
<clipPath id="clip1_118_11119">
<rect width="65.0796" height="58.7069" fill="white" transform="translate(176.577 8.8457) rotate(22.3075)"/>
</clipPath>
</defs>
</svg>
