<svg width="14" height="14" viewBox="0 0 14 14" fill="none" xmlns="http://www.w3.org/2000/svg">
<path fill-rule="evenodd" clip-rule="evenodd" d="M5.88881 1.44412C3.43421 1.44412 1.44436 3.43396 1.44436 5.88856C1.44436 8.34316 3.43421 10.333 5.88881 10.333C8.34341 10.333 10.3333 8.34316 10.3333 5.88856C10.3333 3.43396 8.34341 1.44412 5.88881 1.44412ZM0.333252 5.88856C0.333252 2.82031 2.82056 0.333008 5.88881 0.333008C8.95706 0.333008 11.4444 2.82031 11.4444 5.88856C11.4444 7.2226 10.9742 8.44682 10.1904 9.40453L13.5039 12.7179C13.7208 12.9349 13.7208 13.2867 13.5039 13.5036C13.2869 13.7206 12.9352 13.7206 12.7182 13.5036L9.40477 10.1902C8.44706 10.9739 7.22285 11.4441 5.88881 11.4441C2.82056 11.4441 0.333252 8.95681 0.333252 5.88856Z" fill="black"/>
</svg>
